<?xml version="1.0" encoding="UTF-8"?>
<!DOCTYPE svg PUBLIC "-//W3C//DTD SVG 1.1//EN" "http://www.w3.org/Graphics/SVG/1.1/DTD/svg11.dtd">
<!-- Creator: CorelDRAW X7 -->
<svg xmlns="http://www.w3.org/2000/svg" xml:space="preserve" width="2.06074in" height="2.62602in" version="1.1" style="shape-rendering:geometricPrecision; text-rendering:geometricPrecision; image-rendering:optimizeQuality; fill-rule:evenodd; clip-rule:evenodd"
viewBox="0 0 1173 1495"
 xmlns:xlink="http://www.w3.org/1999/xlink">
 <defs>
  <style type="text/css">
   <![CDATA[
    .fil0 {fill:#FCD3C2}
    .fil4 {fill:#4D2A04}
    .fil1 {fill:#596E03}
    .fil3 {fill:#708D01}
    .fil2 {fill:#7FA104}
   ]]>
  </style>
 </defs>
 <g id="Layer_x0020_1">
  <metadata id="CorelCorpID_0Corel-Layer"/>
  <g id="_2372533310544">
   <circle class="fil0" cx="587" cy="929" r="566"/>
   <g>
    <path class="fil1" d="M8 41c104,54 428,335 545,435 44,45 95,27 134,-15 166,-165 309,-301 472,-444 -39,-32 -82,-8 -114,12l-195 124c-26,16 -44,4 -71,4 -57,-1 -126,2 -176,7 -17,-2 -60,-6 -114,-5 -58,2 -116,5 -138,-10 -51,-36 -105,-66 -158,-99 -68,-41 -122,-52 -185,-9z"/>
    <path class="fil2" d="M18 44c99,49 420,333 531,423 41,41 89,25 126,-13 157,-149 315,-304 470,-434 -37,-29 -100,25 -131,43l-171 106c-18,12 -55,-1 -81,-1 -53,-1 -118,2 -166,6 -16,-1 -57,-5 -108,-4 -55,1 -110,9 -130,-4 -48,-33 -115,-74 -165,-104 -64,-37 -108,-57 -175,-18z"/>
    <path class="fil1" d="M675 442c-54,50 -86,56 -127,15 -135,-102 -510,-426 -548,-424 -2,84 16,622 29,676 5,112 454,134 573,134 119,0 463,-30 524,-162 19,-83 57,-617 45,-681 -29,1 -335,295 -496,442z"/>
    <path class="fil3" d="M598 773l4 -256c-26,-20 -527,-424 -564,-440 -4,109 3,538 34,589 60,94 418,110 526,107z"/>
    <path class="fil3" d="M605 773l4 -255c47,-37 500,-451 535,-481 4,109 -15,536 -47,587 -59,94 -258,141 -492,149z"/>
   </g>
  </g>
  <path class="fil4" d="M255 1165c38,-7 28,12 47,26 16,-71 -66,-91 -98,-15 -28,65 26,111 72,125 69,20 118,0 171,-22l109 -47c43,-29 14,-23 101,17 89,40 156,77 247,50 47,-13 95,-64 62,-127 -43,-83 -117,-32 -96,17 10,-6 12,-16 20,-21 28,-21 62,18 18,50 -76,56 -145,-71 -184,-116 -20,-25 -70,-58 -118,-30 -36,22 -19,7 -53,-5 -41,-15 -88,6 -111,40 -11,16 -24,31 -36,47 -17,22 -52,68 -87,76 -23,5 -50,-4 -62,-16 -22,-21 -14,-30 -2,-49z"/>
 </g>
</svg>
